<svg id="Layer_1" data-name="Layer 1" xmlns="http://www.w3.org/2000/svg" viewBox="0 0 500 500"><defs><style>.cls-1{fill:#ef4136;}.cls-2{fill:#1d4f6b;}.cls-3{fill:#373737;}</style></defs><title>logo-wentees</title><path class="cls-1" d="M402.4,126.7s-38.07-18.8-39.77-49.17c0,0,.52-26.57,22.6-26.94S418.92,78.46,402.4,126.7Z"/><path class="cls-2" d="M376.52,118.07q-16,51.8-35.64,84.12-19.17,31.52-33.19,31.52-10,0-16.16-9.72t-6.15-26.61v-4.87a92.44,92.44,0,0,0,25.18-29.18q8.59-15.73,8.59-29.76,0-20.31-18.6-20.31-16.6,0-31.19,25.75-15.74,27.75-15.73,56.08,0,4.58,1.15,16-22.32,29.18-36.34,29.18-13.73,0-13.73-28.33,0-20,6.86-47.2A288,288,0,0,1,233,105.24a244.77,244.77,0,0,1,18-31.18q7.43-10.58,7.44-12.87a3.54,3.54,0,0,0-.28-1c-11.93-.72-23.84-.75-37-.76q-8,8.87-17.93,26.66a283.47,283.47,0,0,0-25.75,64.38q-8.87,32.33-8.87,59.79,0,60.08,41.49,60.08,26.89,0,52.07-31.48,12,30.34,37.77,30.33,28,0,54.65-36.48,25.15-34.5,45.43-98.65A81,81,0,0,1,376.52,118.07Z"/><path class="cls-2" d="M258.21,60.14S224.35,38,183.66,65.59s-84,20.35-93.86,13.78c0,0,4.59,30.85,33.47,34.79s53.49-15.39,63.67-26.56S223.48,52.06,258.21,60.14Z"/><path class="cls-2" d="M258.42,61.68s.42-1.54-.8-1.9-6.93-1.69-6.93-1.69L220.4,56.26l7.72,13.28Z"/><path class="cls-2" d="M258.42,61.68s-37.73-7.18-64,29.57S101.67,137.73,89.8,79.38c0,0,22.58,38.13,61.64,16.47S221.32,44.9,258.42,61.68Z"/><path class="cls-3" d="M95.17,442.54,84.4,419.22h-.07l-4.95,23.32H76.72L82.35,416h3.59l10.13,22h.07l4.67-22h2.64l-5.63,26.52Z"/><path class="cls-3" d="M124.19,433.65H106.35a5.83,5.83,0,0,0,1.36,5,6,6,0,0,0,4.72,2.1,9.57,9.57,0,0,0,8-4.63h2.66a13.83,13.83,0,0,1-4.81,5A11.75,11.75,0,0,1,112,443a7.89,7.89,0,0,1-6.59-3,8.36,8.36,0,0,1-1.45-7.23,12.88,12.88,0,0,1,4.53-7.26,12,12,0,0,1,7.85-3.06,7.78,7.78,0,0,1,6.61,3.13,8.68,8.68,0,0,1,1.42,7.36Zm-2.07-2.26a6.43,6.43,0,0,0-1.59-4.79,6,6,0,0,0-4.65-1.91,9,9,0,0,0-5.46,1.91,10.47,10.47,0,0,0-3.6,4.79Z"/><path class="cls-3" d="M145.7,442.54h-2.83l-1.4-13h-.07l-6.84,13h-2.83l-3.29-19.59h2.62l2.67,16.41h.07l7.45-14h2.19l1.54,14h.07l9.71-16.41h2.59Z"/><path class="cls-3" d="M177.57,418.44l-5.12,24.1h-2.66l5.12-24.1h-6.09l.51-2.41h14.8l-.51,2.41Z"/><path class="cls-3" d="M199.1,433.65H181.26a5.83,5.83,0,0,0,1.36,5,6,6,0,0,0,4.72,2.1,9.57,9.57,0,0,0,8-4.63H198a13.83,13.83,0,0,1-4.81,5,11.75,11.75,0,0,1-6.29,1.91,7.89,7.89,0,0,1-6.59-3,8.36,8.36,0,0,1-1.45-7.23,12.88,12.88,0,0,1,4.53-7.26,12,12,0,0,1,7.85-3.06,7.78,7.78,0,0,1,6.61,3.13,8.68,8.68,0,0,1,1.42,7.36ZM197,431.4a6.43,6.43,0,0,0-1.59-4.79,6,6,0,0,0-4.65-1.91,9,9,0,0,0-5.46,1.91,10.47,10.47,0,0,0-3.6,4.79Z"/><path class="cls-3" d="M222.38,433.65H204.54a5.83,5.83,0,0,0,1.36,5,6,6,0,0,0,4.72,2.1,9.57,9.57,0,0,0,8-4.63h2.66a13.83,13.83,0,0,1-4.81,5,11.75,11.75,0,0,1-6.29,1.91,7.89,7.89,0,0,1-6.59-3,8.36,8.36,0,0,1-1.45-7.23,12.88,12.88,0,0,1,4.53-7.26,12,12,0,0,1,7.85-3.06,7.78,7.78,0,0,1,6.61,3.13,8.68,8.68,0,0,1,1.42,7.36Zm-2.07-2.26a6.43,6.43,0,0,0-1.59-4.79,6,6,0,0,0-4.65-1.91,9,9,0,0,0-5.46,1.91,10.47,10.47,0,0,0-3.6,4.79Z"/><path class="cls-3" d="M228.78,443a4.69,4.69,0,0,1-4-1.72,5,5,0,0,1-.77-4.34l.05-.23h2.5q-.79,4,2.66,4a4,4,0,0,0,4.39-3.51,2.61,2.61,0,0,0-.82-2.73,5.71,5.71,0,0,0-1.31-.79l-1.52-.65a15.78,15.78,0,0,1-1.52-.72,4.82,4.82,0,0,1-1.24-1,3.78,3.78,0,0,1-.68-3.5A6.59,6.59,0,0,1,229,424a6.67,6.67,0,0,1,4.3-1.52,4.19,4.19,0,0,1,3.48,1.54,4.37,4.37,0,0,1,.72,3.8H235q.47-3.08-2.27-3.08a3.34,3.34,0,0,0-3.6,2.94A2.11,2.11,0,0,0,230,430a7,7,0,0,0,1.31.68l.37.16.4.16.77.31a11,11,0,0,1,1.5.77,4.12,4.12,0,0,1,1.22,1.07,4.57,4.57,0,0,1,.59,3.9Q234.94,443,228.78,443Z"/><path class="cls-3" d="M248.32,442.54,254,416h14.5l-.51,2.41H256.1l-2,9.51h11.46l-.51,2.41H253.57l-2.08,9.78h11.84l-.51,2.4Z"/><path class="cls-3" d="M276.29,442.54h-2.76l-4.11-19.59h2.69l3.41,16.48L286,422.95h2.69Z"/><path class="cls-3" d="M308.49,433.65H290.65a5.83,5.83,0,0,0,1.36,5,6,6,0,0,0,4.72,2.1,9.57,9.57,0,0,0,8-4.63h2.66a13.83,13.83,0,0,1-4.81,5A11.75,11.75,0,0,1,296.3,443a7.89,7.89,0,0,1-6.59-3,8.36,8.36,0,0,1-1.45-7.23,12.88,12.88,0,0,1,4.53-7.26,12,12,0,0,1,7.85-3.06,7.78,7.78,0,0,1,6.61,3.13,8.68,8.68,0,0,1,1.42,7.36Zm-2.07-2.26a6.43,6.43,0,0,0-1.59-4.79,6,6,0,0,0-4.65-1.91,9,9,0,0,0-5.46,1.91,10.47,10.47,0,0,0-3.6,4.79Z"/><path class="cls-3" d="M322.25,425.1q-5.7.46-6.87,6l-2.43,11.46h-2.5l4.16-19.59h2.5l-.59,2.83h.07a6.84,6.84,0,0,1,2.76-2.55,9.7,9.7,0,0,1,3.46-.79Z"/><path class="cls-3" d="M326.1,449.41h-2.61l5-7.52-3.59-18.94h2.66l2.9,15.62,10-15.62h2.64Z"/><path class="cls-3" d="M368.8,440.35a17.15,17.15,0,0,1-4.53,1.68,21.35,21.35,0,0,1-4.58.51H352L357.59,416h7.73a17.92,17.92,0,0,1,4.37.52,10.88,10.88,0,0,1,3.81,1.66q5.19,3.85,3.64,11.14A16.23,16.23,0,0,1,368.8,440.35Zm3.06-19.89a8.43,8.43,0,0,0-3.81-1.7,18.79,18.79,0,0,0-2.19-.28q-1-.05-2.29-.05h-3.83l-4.62,21.71h4.39c.89,0,1.65,0,2.31-.07a17.88,17.88,0,0,0,2.24-.3A13.38,13.38,0,0,0,368.5,438a12.93,12.93,0,0,0,3.92-3.88,13.75,13.75,0,0,0,2.1-4.86Q375.7,423.58,371.86,420.47Z"/><path class="cls-3" d="M395.68,442.54l.74-3.44h-.07a10.81,10.81,0,0,1-8.46,3.92,8.07,8.07,0,0,1-8.33-10.32,12.46,12.46,0,0,1,4.65-7.33,12.64,12.64,0,0,1,8-2.92q5.13,0,6.79,3.93h.07l.74-3.43h2.52l-4.16,19.59Zm1.19-15.44a6,6,0,0,0-5.09-2.4,9.47,9.47,0,0,0-6.24,2.31A10.14,10.14,0,0,0,382,432.8a6.58,6.58,0,0,0,1.08,5.7,6.37,6.37,0,0,0,5.27,2.26,9.21,9.21,0,0,0,6.09-2.36,9.92,9.92,0,0,0,3.46-5.63A6.75,6.75,0,0,0,396.87,427.09Z"/><path class="cls-3" d="M406.3,449.41h-2.61l5-7.52-3.59-18.94h2.66l2.9,15.62,10-15.62h2.64Z"/><path class="cls-3" d="M491.45,336.24h-2.3q-1.26-8.69-6.28-12-4.29-2.62-13.51-2.62a25.08,25.08,0,0,0-13.09,3.77q-6.91,4.29-6.91,10.89,0,8.8,12,12l22.3,5.45q12,4.61,12,16.65,0,11.41-9.64,17.9-8.38,5.66-20.31,5.66A51.07,51.07,0,0,1,455,392.79,52.5,52.5,0,0,1,444,389v-3.14q0-5.86-.16-8.32t-.68-7.38l2.3-.1q2.51,19.79,20.31,19.79A26.85,26.85,0,0,0,481,385.56q7.54-4.92,7.54-13.19a12,12,0,0,0-4.19-9.64q-3-2.61-9.53-4.19L464,356.45q-21.15-4.39-21.15-18.22,0-10.89,9.74-16.54,7.86-4.4,19.79-4.4a87.39,87.39,0,0,1,18.32,2.51l-.1,1.36c0,1.68,0,3.47.1,5.39S491,331.71,491.45,336.24Z"/><path class="cls-3" d="M4.25,317.29H23.92l20.73,59.64,17.12-50,.21-1.38q0-4.26-6-8.29H73.46l21,61L112.27,327l.43-2.55q0-3.08-4.47-7.12h19.14l-29,79.95-1.49-.53-5.63-2.45q-6.27-3.19-8.19-8.72l-1.7-5.21-13.82-37-19,53.37a34.45,34.45,0,0,1-8.4-4,15.89,15.89,0,0,1-6.27-6.91L32.43,382,11.7,327a14.6,14.6,0,0,0-2.55-4.78A49.18,49.18,0,0,0,4.25,317.29Z"/><path class="cls-3" d="M127.9,393.94a16.07,16.07,0,0,0,4.25-4.57,13.07,13.07,0,0,0,1-4.78l.11-57.62a11.17,11.17,0,0,0-1.06-5.21,17.15,17.15,0,0,0-3.29-4.47H173.5v15.95q-3.93-5.84-8.82-5.84H147.24v20.73H166.7v13.5a11.14,11.14,0,0,0-4.63-3.51,19.37,19.37,0,0,0-6.32-.85h-8.51v26.26a104.54,104.54,0,0,0,12.44,1.06h4.47a7.64,7.64,0,0,1,1.28-.21,22.81,22.81,0,0,0,4.78-.48,35.88,35.88,0,0,0,4.36-1.22,47.24,47.24,0,0,0,8.51-4.78l-5.53,16.05Z"/><path class="cls-3" d="M188,393.94a17.12,17.12,0,0,0,4.2-4.57,10.17,10.17,0,0,0,1-4.78l.21-57.62a10.6,10.6,0,0,0-.85-4.68,16.55,16.55,0,0,0-3.72-5H205.5l43,54.33V327a10.6,10.6,0,0,0-.85-4.68,17,17,0,0,0-3.62-5h19.46a35,35,0,0,0-3.3,4.47,12.47,12.47,0,0,0-1.06,5.21v70.38a24.36,24.36,0,0,1-8.08-3.51,31.53,31.53,0,0,1-6.06-4.78l-4.46-5.21-2.87-3.5-33.7-42.21V384.8a12.59,12.59,0,0,0,.16,2,10.62,10.62,0,0,0,1.06,2.82q.9,1.81,4.41,4.36Z"/><path class="cls-3" d="M266.95,318.57h52.84v3a135,135,0,0,0,1,17.22h-2.55q-1.59-8.82-2.87-11a7.74,7.74,0,0,0-3.72-3.24,15.82,15.82,0,0,0-6.27-1.06H297v59.21q0,1.49.05,3.3a7,7,0,0,0,.8,3.19q1.17,2.45,5.42,3.08l-.11,1.49-10.31-.32-9.57.32v-1.81h.43a4.75,4.75,0,0,0,4.78-3.51,21.65,21.65,0,0,0,.74-6.49l.21-58.57H280q-6.17,0-9,4.78-1.49,2.65-2.76,10.42l-2.55.11A184.82,184.82,0,0,0,266.95,318.57Z"/><path class="cls-3" d="M322.23,391.92q3.51,0,5-1.33t1.49-4.94l-.11-59q0-3.62-1.17-4.63t-5-1.54v-1.91H375.6v1.91a86.54,86.54,0,0,0,1.38,15l-2.23-1.38q-1.28-6.16-4.09-8.34t-9.3-2.18H336v28.6h17.54a8.62,8.62,0,0,0,5.64-1.59,6.2,6.2,0,0,0,1.44-2.23,9.92,9.92,0,0,0,.48-3.4l2.12-.11-.43,9.89c0,1.56,0,3.24.11,5s.21,3.74.43,5.8L361,364.28q0-3.83-2.07-5.48t-6.43-1.65H336v31.79l14.57-.11h14.46q6.38,0,9-3.3,1.81-2.23,3.4-9.35h2.66a76.12,76.12,0,0,0-1.91,17.75h-56Z"/><path class="cls-3" d="M382.3,391.92q3.51,0,5-1.33t1.49-4.94l-.11-59q0-3.62-1.17-4.63t-5-1.54v-1.91h53.16v1.91a86.54,86.54,0,0,0,1.38,15l-2.23-1.38q-1.28-6.16-4.09-8.34t-9.3-2.18h-25.3v28.6h17.54a8.62,8.62,0,0,0,5.64-1.59,6.2,6.2,0,0,0,1.44-2.23,9.92,9.92,0,0,0,.48-3.4l2.12-.11-.43,9.89c0,1.56,0,3.24.11,5s.21,3.74.43,5.8l-2.33-1.28q0-3.83-2.07-5.48t-6.43-1.65H396.12v31.79l14.57-.11h14.46q6.38,0,9-3.3,1.81-2.23,3.4-9.35h2.66a76.12,76.12,0,0,0-1.91,17.75h-56Z"/></svg>