<svg id="Layer_1" data-name="Layer 1" xmlns="http://www.w3.org/2000/svg" viewBox="0 0 16 16"><defs><style>.cls-1{fill:#ef4136;}.cls-2{fill:#1d4f6b;}</style></defs><title>logo-wentees</title><path class="cls-1" d="M15.6,6.65s-1.9-.94-2-2.45c0,0,0-1.32,1.13-1.34S16.42,4.25,15.6,6.65Z"/><path class="cls-2" d="M14.31,6.22a18.76,18.76,0,0,1-1.78,4.19Q11.57,12,10.88,12a.92.92,0,0,1-.81-.48,2.47,2.47,0,0,1-.31-1.33V9.94A4.61,4.61,0,0,0,11,8.48,3.11,3.11,0,0,0,11.45,7q0-1-.93-1T9,7.27a5.61,5.61,0,0,0-.78,2.8q0,.23.06.8-1.11,1.45-1.81,1.45T5.74,10.9a9.81,9.81,0,0,1,.34-2.35,14.36,14.36,0,0,1,1.07-3A12.2,12.2,0,0,1,8.05,4a2.1,2.1,0,0,0,.37-.64.18.18,0,0,0,0-.05c-.59,0-1.19,0-1.84,0a7.41,7.41,0,0,0-.89,1.33A14.13,14.13,0,0,0,4.39,7.84a11.31,11.31,0,0,0-.44,3q0,3,2.07,3a3.44,3.44,0,0,0,2.6-1.57,2,2,0,0,0,1.88,1.51,3.59,3.59,0,0,0,2.72-1.82A17.42,17.42,0,0,0,15.48,7,4,4,0,0,1,14.31,6.22Z"/><path class="cls-2" d="M8.41,3.34a3.42,3.42,0,0,0-3.72.27A5,5,0,0,1,0,4.3,2.09,2.09,0,0,0,1.68,6,3.88,3.88,0,0,0,4.86,4.71,3.79,3.79,0,0,1,8.41,3.34Z"/><path class="cls-2" d="M8.42,3.41s0-.08,0-.09L8,3.24,6.52,3.14l.38.66Z"/><path class="cls-2" d="M8.42,3.41A3.34,3.34,0,0,0,5.23,4.89C3.92,6.72.61,7.21,0,4.3a2.24,2.24,0,0,0,3.07.82C5,4,6.57,2.58,8.42,3.41Z"/></svg>