<svg id="Layer_1" data-name="Layer 1" xmlns="http://www.w3.org/2000/svg" viewBox="0 0 1000 500"><defs><style>.cls-1{fill:#373737;}.cls-2{fill:#ef4136;}.cls-3{fill:#1d4f6b;}</style></defs><title>logo-wentees</title><path class="cls-1" d="M445.38,330.55l-14.73-31.87h-.1l-6.76,31.87h-3.63l7.7-36.24h4.9l13.84,30.07h.1l6.38-30.07h3.61L449,330.55Z"/><path class="cls-1" d="M485,318.41H460.66a8,8,0,0,0,1.86,6.84,8.14,8.14,0,0,0,6.46,2.87,13.08,13.08,0,0,0,10.95-6.33h3.63a18.91,18.91,0,0,1-6.57,6.81,16.06,16.06,0,0,1-8.6,2.61,10.78,10.78,0,0,1-9-4.13,11.43,11.43,0,0,1-2-9.88,17.6,17.6,0,0,1,6.19-9.92,16.41,16.41,0,0,1,10.73-4.18,10.63,10.63,0,0,1,9,4.28,11.87,11.87,0,0,1,1.93,10.06Zm-2.82-3.08a8.79,8.79,0,0,0-2.17-6.55,8.17,8.17,0,0,0-6.36-2.61,12.24,12.24,0,0,0-7.46,2.61,14.31,14.31,0,0,0-4.92,6.55Z"/><path class="cls-1" d="M514.44,330.55h-3.87l-1.91-17.81h-.1l-9.35,17.81h-3.87l-4.5-26.78h3.59l3.66,22.42h.1L508.37,307h3l2.1,19.2h.1l13.27-22.42h3.54Z"/><path class="cls-1" d="M558,297.61l-7,32.94h-3.63l7-32.94H546l.69-3.3H567l-.69,3.3Z"/><path class="cls-1" d="M587.43,318.41H563a8,8,0,0,0,1.86,6.84,8.14,8.14,0,0,0,6.46,2.87,13.08,13.08,0,0,0,10.95-6.33h3.63a18.91,18.91,0,0,1-6.57,6.81,16.06,16.06,0,0,1-8.6,2.61,10.78,10.78,0,0,1-9-4.13,11.43,11.43,0,0,1-2-9.88,17.6,17.6,0,0,1,6.19-9.92,16.41,16.41,0,0,1,10.73-4.18,10.63,10.63,0,0,1,9,4.28,11.87,11.87,0,0,1,1.93,10.06Zm-2.82-3.08a8.79,8.79,0,0,0-2.17-6.55,8.17,8.17,0,0,0-6.36-2.61,12.24,12.24,0,0,0-7.46,2.61,14.31,14.31,0,0,0-4.92,6.55Z"/><path class="cls-1" d="M619.25,318.41H594.87a8,8,0,0,0,1.86,6.84,8.14,8.14,0,0,0,6.46,2.87,13.08,13.08,0,0,0,10.95-6.33h3.63a18.91,18.91,0,0,1-6.57,6.81,16.06,16.06,0,0,1-8.6,2.61,10.78,10.78,0,0,1-9-4.13,11.43,11.43,0,0,1-2-9.88,17.6,17.6,0,0,1,6.19-9.92,16.41,16.41,0,0,1,10.73-4.18,10.63,10.63,0,0,1,9,4.28,11.87,11.87,0,0,1,1.93,10.06Zm-2.82-3.08a8.79,8.79,0,0,0-2.17-6.55,8.17,8.17,0,0,0-6.36-2.61,12.24,12.24,0,0,0-7.46,2.61,14.31,14.31,0,0,0-4.92,6.55Z"/><path class="cls-1" d="M628,331.2a6.41,6.41,0,0,1-5.4-2.34,6.89,6.89,0,0,1-1.05-5.93l.07-.31H625q-1.08,5.5,3.63,5.5,5,0,6-4.8a3.57,3.57,0,0,0-1.12-3.73,7.8,7.8,0,0,0-1.79-1.08l-2.08-.88a21.56,21.56,0,0,1-2.08-1,6.59,6.59,0,0,1-1.7-1.34,5.17,5.17,0,0,1-.93-4.78,9,9,0,0,1,3.32-5.35,9.12,9.12,0,0,1,5.88-2.08,5.73,5.73,0,0,1,4.76,2.1,6,6,0,0,1,1,5.19h-3.42q.64-4.2-3.11-4.21a4.57,4.57,0,0,0-4.92,4,2.89,2.89,0,0,0,1.27,3.2,9.5,9.5,0,0,0,1.79.93l.5.22.55.22,1.05.43a15,15,0,0,1,2.06,1.05,5.63,5.63,0,0,1,1.67,1.46,6.25,6.25,0,0,1,.81,5.33Q636.41,331.2,628,331.2Z"/><path class="cls-1" d="M654.7,330.55l7.7-36.24h19.82l-.69,3.3H665.34l-2.77,13h15.66l-.69,3.3H661.87L659,327.28h16.18l-.69,3.28Z"/><path class="cls-1" d="M692.93,330.55h-3.78l-5.62-26.78h3.68l4.66,22.52,14.37-22.52h3.68Z"/><path class="cls-1" d="M736.94,318.41H712.56a8,8,0,0,0,1.86,6.84,8.14,8.14,0,0,0,6.46,2.87,13.08,13.08,0,0,0,10.95-6.33h3.63a18.91,18.91,0,0,1-6.57,6.81,16.06,16.06,0,0,1-8.6,2.61,10.78,10.78,0,0,1-9-4.13,11.43,11.43,0,0,1-2-9.88,17.6,17.6,0,0,1,6.19-9.92,16.41,16.41,0,0,1,10.73-4.18,10.63,10.63,0,0,1,9,4.28,11.87,11.87,0,0,1,1.93,10.06Zm-2.82-3.08a8.79,8.79,0,0,0-2.17-6.55,8.17,8.17,0,0,0-6.36-2.61,12.24,12.24,0,0,0-7.46,2.61,14.31,14.31,0,0,0-4.92,6.55Z"/><path class="cls-1" d="M755.75,306.72q-7.79.62-9.39,8.17L743,330.55h-3.42l5.69-26.78h3.42l-.81,3.87h.1a9.35,9.35,0,0,1,3.78-3.49,13.26,13.26,0,0,1,4.73-1.08Z"/><path class="cls-1" d="M761,339.95h-3.56l6.81-10.28-4.9-25.89H763l4,21.35,13.65-21.35h3.61Z"/><path class="cls-1" d="M819.37,327.56a23.44,23.44,0,0,1-6.19,2.3,29.18,29.18,0,0,1-6.26.69H796.35l7.7-36.24h10.56a24.49,24.49,0,0,1,6,.72,14.87,14.87,0,0,1,5.21,2.27q7.1,5.26,5,15.23Q828.72,322.21,819.37,327.56Zm4.18-27.18a11.52,11.52,0,0,0-5.21-2.32,25.68,25.68,0,0,0-3-.38q-1.31-.07-3.13-.07H807l-6.31,29.67h6c1.21,0,2.26,0,3.15-.1a24.44,24.44,0,0,0,3.06-.41,18.28,18.28,0,0,0,6.07-2.44,17.67,17.67,0,0,0,5.35-5.31,18.8,18.8,0,0,0,2.87-6.65Q828.81,304.64,823.55,300.38Z"/><path class="cls-1" d="M856.11,330.55l1-4.71H857a14.77,14.77,0,0,1-11.57,5.35q-6.05,0-9.35-4t-2-10.07a17,17,0,0,1,6.36-10,17.28,17.28,0,0,1,11-4q7,0,9.28,5.38h.1l1-4.69h3.44l-5.69,26.78Zm1.63-21.11a8.16,8.16,0,0,0-7-3.28,12.94,12.94,0,0,0-8.53,3.16,13.86,13.86,0,0,0-4.81,7.91,9,9,0,0,0,1.48,7.79,8.7,8.7,0,0,0,7.2,3.08,12.59,12.59,0,0,0,8.32-3.23,13.56,13.56,0,0,0,4.73-7.7A9.22,9.22,0,0,0,857.74,309.44Z"/><path class="cls-1" d="M870.62,339.95h-3.56l6.81-10.28L869,303.78h3.63l4,21.35,13.65-21.35h3.61Z"/><path class="cls-1" d="M987,185.27h-3.15q-1.72-11.88-8.59-16.46-5.87-3.58-18.46-3.58a34.28,34.28,0,0,0-17.89,5.15q-9.45,5.87-9.45,14.88,0,12,16.46,16.46l30.48,7.44q16.46,6.3,16.46,22.75,0,15.6-13.17,24.47-11.45,7.73-27.76,7.73a69.8,69.8,0,0,1-14.74-1.57,71.76,71.76,0,0,1-15-5.15v-4.29q0-8-.21-11.37T921,231.64l3.15-.14q3.44,27,27.76,27a36.7,36.7,0,0,0,20.75-5.87Q983,246,983,234.65q0-8.3-5.73-13.17-4.15-3.57-13-5.73l-14.74-2.86q-28.91-6-28.91-24.9,0-14.88,13.31-22.61,10.74-6,27-6,9.73,0,25,3.44l-.14,1.86c0,2.29.05,4.74.14,7.37S986.45,179.06,987,185.27Z"/><path class="cls-1" d="M321.11,159.36H348l28.33,81.52,23.4-68.29.29-1.89q0-5.82-8.14-11.34h23.83l28.77,83.41,24.27-70.18.58-3.49q0-4.21-6.1-9.74h26.16L449.71,268.63l-2-.73-7.7-3.34q-8.58-4.36-11.19-11.92l-2.33-7.11L407.57,195l-26,72.95a47.08,47.08,0,0,1-11.48-5.52q-6.4-4.21-8.57-9.45l-1.89-5.09-28.33-75.26a20,20,0,0,0-3.49-6.54A67.21,67.21,0,0,0,321.11,159.36Z"/><path class="cls-1" d="M490.1,264.13a22,22,0,0,0,5.81-6.25,17.86,17.86,0,0,0,1.31-6.54l.15-78.75a15.27,15.27,0,0,0-1.45-7.12q-.87-2.18-4.5-6.1h61v21.79q-5.38-8-12.06-8H516.55V201.5h26.59V220a15.23,15.23,0,0,0-6.32-4.8,26.47,26.47,0,0,0-8.64-1.16H516.55v35.89a142.88,142.88,0,0,0,17,1.45h6.1a10.44,10.44,0,0,1,1.74-.29,31.18,31.18,0,0,0,6.54-.65,49,49,0,0,0,6-1.67,64.56,64.56,0,0,0,11.63-6.53L558,264.13Z"/><path class="cls-1" d="M572.2,264.13q4.36-3.63,5.74-6.25a13.9,13.9,0,0,0,1.38-6.54l.29-78.75a14.48,14.48,0,0,0-1.16-6.39q-.87-2.47-5.08-6.83h22.81l58.71,74.25v-61a14.48,14.48,0,0,0-1.16-6.39q-.87-2.47-4.94-6.83h26.59a47.84,47.84,0,0,0-4.51,6.1,17,17,0,0,0-1.45,7.12v96.19a33.29,33.29,0,0,1-11-4.8,43.09,43.09,0,0,1-8.28-6.54l-6.1-7.12-3.92-4.79L594,187.84v63.79a17.21,17.21,0,0,0,.22,2.69,14.52,14.52,0,0,0,1.45,3.85q1.23,2.48,6,6Z"/><path class="cls-1" d="M680.16,161.11h72.22v4.07a184.52,184.52,0,0,0,1.31,23.54H750.2q-2.18-12.06-3.92-15a10.58,10.58,0,0,0-5.08-4.43,21.63,21.63,0,0,0-8.57-1.45H721.29v80.93q0,2,.07,4.51a9.58,9.58,0,0,0,1.09,4.36q1.6,3.35,7.41,4.21l-.15,2-14.09-.44-13.08.44v-2.47h.58q4.8,0,6.54-4.8a29.59,29.59,0,0,0,1-8.87l.29-80.06H698q-8.43,0-12.35,6.54-2,3.63-3.78,14.24l-3.49.15A252.61,252.61,0,0,0,680.16,161.11Z"/><path class="cls-1" d="M755.72,261.37q4.8,0,6.83-1.82t2-6.76l-.15-80.64q0-4.94-1.6-6.32T756,163.72v-2.62h72.65v2.62a118.29,118.29,0,0,0,1.89,20.49l-3.05-1.89q-1.74-8.42-5.6-11.4t-12.72-3H774.61V207h24q5.08,0,7.7-2.18a8.47,8.47,0,0,0,2-3.05,13.56,13.56,0,0,0,.65-4.65l2.9-.15-.58,13.52c0,2.13.05,4.43.15,6.9s.29,5.11.58,7.92l-3.19-1.74q0-5.23-2.83-7.48t-8.79-2.25H774.61V257.3l19.91-.15h19.76q8.72,0,12.35-4.51,2.47-3.05,4.65-12.78h3.63a104,104,0,0,0-2.62,24.26H755.72Z"/><path class="cls-1" d="M837.82,261.37q4.8,0,6.83-1.82t2-6.76l-.15-80.64q0-4.94-1.6-6.32t-6.83-2.11v-2.62h72.65v2.62a118.29,118.29,0,0,0,1.89,20.49l-3.05-1.89q-1.74-8.42-5.6-11.4t-12.72-3H856.71V207h24q5.08,0,7.7-2.18a8.47,8.47,0,0,0,2-3.05,13.56,13.56,0,0,0,.65-4.65l2.9-.15-.58,13.52c0,2.13.05,4.43.15,6.9s.29,5.11.58,7.92l-3.19-1.74q0-5.23-2.83-7.48t-8.79-2.25H856.71V257.3l19.91-.15h19.76q8.72,0,12.35-4.51,2.47-3.05,4.65-12.78H917a104,104,0,0,0-2.62,24.26H837.82Z"/><path class="cls-2" d="M285.58,219.58s-33.91-16.75-35.43-43.8c0,0,.47-23.67,20.13-24S300.3,176.61,285.58,219.58Z"/><path class="cls-3" d="M262.53,211.89Q248.3,258,230.78,286.82q-17.08,28.08-29.57,28.08-8.92,0-14.4-8.66t-5.48-23.7V278.2a82.35,82.35,0,0,0,22.43-26q7.65-14,7.65-26.51,0-18.09-16.57-18.09-14.79,0-27.78,22.94-14,24.72-14,50,0,4.08,1,14.27-19.88,26-32.37,26-12.23,0-12.23-25.23,0-17.83,6.12-42.05a256.57,256.57,0,0,1,19.12-53,218,218,0,0,1,16.06-27.78q6.62-9.43,6.62-11.47a3.15,3.15,0,0,0-.25-.9c-10.63-.64-21.23-.67-33-.67q-7.15,7.9-16,23.75a252.52,252.52,0,0,0-22.94,57.35q-7.91,28.8-7.9,53.26,0,53.52,37,53.52,24,0,46.38-28,10.71,27,33.65,27,25,0,48.68-32.5,22.41-30.73,40.47-87.88A72.19,72.19,0,0,1,262.53,211.89Z"/><path class="cls-3" d="M157.14,160.29s-30.16-19.7-66.41,4.86S15.88,183.27,7.11,177.42c0,0,4.09,27.48,29.82,31s47.65-13.71,56.72-23.66S126.2,153.09,157.14,160.29Z"/><path class="cls-3" d="M157.32,161.66s.38-1.37-.71-1.69-6.18-1.5-6.18-1.5l-27-1.62,6.88,11.83Z"/><path class="cls-3" d="M157.32,161.66s-33.61-6.4-57,26.34S17.69,229.41,7.11,177.42c0,0,20.12,34,54.91,14.67S124.27,146.71,157.32,161.66Z"/></svg>