<svg id="Layer_1" data-name="Layer 1" xmlns="http://www.w3.org/2000/svg" viewBox="0 0 32 32"><defs><style>.cls-1{fill:#ef4136;}.cls-2{fill:#1d4f6b;}</style></defs><title>logo-wentees</title><path class="cls-1" d="M31.22,12.63s-3.8-1.88-4-4.91c0,0,.05-2.65,2.26-2.69S32.87,7.81,31.22,12.63Z"/><path class="cls-2" d="M28.64,11.77a37.59,37.59,0,0,1-3.56,8.4q-1.91,3.15-3.32,3.15a1.85,1.85,0,0,1-1.61-1,4.94,4.94,0,0,1-.61-2.66V19.2A9.23,9.23,0,0,0,22,16.29a6.23,6.23,0,0,0,.86-3q0-2-1.86-2-1.66,0-3.11,2.57a11.25,11.25,0,0,0-1.57,5.6q0,.46.11,1.6Q14.25,24,12.85,24t-1.37-2.83a19.65,19.65,0,0,1,.69-4.71,28.76,28.76,0,0,1,2.14-5.94,24.45,24.45,0,0,1,1.8-3.11,4.21,4.21,0,0,0,.74-1.29.35.35,0,0,0,0-.1c-1.19-.07-2.38-.08-3.7-.08a14.84,14.84,0,0,0-1.79,2.66A28.31,28.31,0,0,0,8.76,15a22.67,22.67,0,0,0-.89,6q0,6,4.14,6,2.69,0,5.2-3.14,1.2,3,3.77,3,2.8,0,5.46-3.64A34.89,34.89,0,0,0,31,13.36,8.09,8.09,0,0,1,28.64,11.77Z"/><path class="cls-2" d="M16.82,6a6.85,6.85,0,0,0-7.45.54C5.31,9.28,1,8.56,0,7.9,0,7.9.46,11,3.34,11.38S8.69,9.84,9.7,8.72,13.35,5.17,16.82,6Z"/><path class="cls-2" d="M16.84,6.13s0-.15-.08-.19l-.69-.17-3-.18.77,1.33Z"/><path class="cls-2" d="M16.84,6.13a6.69,6.69,0,0,0-6.39,3C7.83,12.76,1.19,13.73,0,7.9c0,0,2.26,3.81,6.16,1.64S13.14,4.46,16.84,6.13Z"/></svg>