<svg id="Layer_1" data-name="Layer 1" xmlns="http://www.w3.org/2000/svg" viewBox="0 0 32 32"><defs><style>.cls-1{fill:#fff;}.cls-2{fill:#ef4136;}.cls-3{fill:#1d4f6b;}.cls-4{fill:#373737;}</style></defs><title>logo-wentees</title><rect class="cls-1" width="32" height="32"/><path class="cls-2" d="M25.58,8.25s-2.39-1.18-2.5-3.09c0,0,0-1.67,1.42-1.69S26.62,5.21,25.58,8.25Z"/><path class="cls-3" d="M24,7.7A23.67,23.67,0,0,1,21.72,13q-1.21,2-2.09,2a1.16,1.16,0,0,1-1-.61,3.11,3.11,0,0,1-.39-1.67v-.31a5.81,5.81,0,0,0,1.58-1.84,3.92,3.92,0,0,0,.54-1.87q0-1.28-1.17-1.28T17.22,9a7.08,7.08,0,0,0-1,3.53q0,.29.07,1Q14.9,15.39,14,15.39t-.86-1.78a12.37,12.37,0,0,1,.43-3A18.11,18.11,0,0,1,14.93,6.9a15.39,15.39,0,0,1,1.13-2,2.65,2.65,0,0,0,.47-.81.22.22,0,0,0,0-.06c-.75,0-1.5,0-2.33,0a9.34,9.34,0,0,0-1.13,1.68,17.83,17.83,0,0,0-1.62,4,14.27,14.27,0,0,0-.56,3.76q0,3.78,2.61,3.78a4.35,4.35,0,0,0,3.27-2,2.53,2.53,0,0,0,2.38,1.91q1.76,0,3.44-2.29a22,22,0,0,0,2.86-6.2A5.1,5.1,0,0,1,24,7.7Z"/><path class="cls-3" d="M16.52,4.06a4.31,4.31,0,0,0-4.69.34,6.34,6.34,0,0,1-5.9.87A2.63,2.63,0,0,0,8,7.46a4.9,4.9,0,0,0,4-1.67A4.78,4.78,0,0,1,16.52,4.06Z"/><path class="cls-3" d="M16.53,4.16s0-.1-.05-.12L16,3.93l-1.9-.11.49.84Z"/><path class="cls-3" d="M16.53,4.16a4.21,4.21,0,0,0-4,1.86c-1.65,2.31-5.83,2.92-6.58-.75a2.83,2.83,0,0,0,3.88,1C12.26,4.94,14.2,3.1,16.53,4.16Z"/><path class="cls-4" d="M6.26,28.11l-.68-1.47h0l-.31,1.47H5.1l.35-1.67h.23l.64,1.38h0l.29-1.38h.17l-.35,1.67Z"/><path class="cls-4" d="M8.09,27.55H7a.37.37,0,0,0,.09.31.37.37,0,0,0,.3.13.6.6,0,0,0,.5-.29H8a.87.87,0,0,1-.3.31.74.74,0,0,1-.4.12.5.5,0,0,1-.41-.19.53.53,0,0,1-.09-.45A.81.81,0,0,1,7.1,27a.76.76,0,0,1,.49-.19A.49.49,0,0,1,8,27a.55.55,0,0,1,.09.46ZM8,27.41a.4.4,0,0,0-.1-.3A.38.38,0,0,0,7.57,27a.56.56,0,0,0-.34.12.66.66,0,0,0-.23.3Z"/><path class="cls-4" d="M9.44,28.11H9.26l-.09-.82h0l-.43.82H8.56l-.21-1.23h.17l.17,1h0L9.16,27H9.3l.1.88h0l.61-1h.16Z"/><path class="cls-4" d="M11.45,26.59l-.32,1.52H11l.32-1.52H10.9l0-.15h.93l0,.15Z"/><path class="cls-4" d="M12.8,27.55H11.68a.37.37,0,0,0,.09.31.37.37,0,0,0,.3.13.6.6,0,0,0,.5-.29h.17a.87.87,0,0,1-.3.31.74.74,0,0,1-.4.12.5.5,0,0,1-.41-.19.53.53,0,0,1-.09-.45.81.81,0,0,1,.28-.46.76.76,0,0,1,.49-.19.49.49,0,0,1,.42.2.55.55,0,0,1,.09.46Zm-.13-.14a.4.4,0,0,0-.1-.3.38.38,0,0,0-.29-.12.56.56,0,0,0-.34.12.66.66,0,0,0-.23.3Z"/><path class="cls-4" d="M14.26,27.55H13.14a.37.37,0,0,0,.09.31.37.37,0,0,0,.3.13.6.6,0,0,0,.5-.29h.17a.87.87,0,0,1-.3.31.74.74,0,0,1-.4.12.5.5,0,0,1-.41-.19.53.53,0,0,1-.09-.45.81.81,0,0,1,.28-.46.76.76,0,0,1,.49-.19.49.49,0,0,1,.42.2.55.55,0,0,1,.09.46Zm-.13-.14a.4.4,0,0,0-.1-.3.38.38,0,0,0-.29-.12.56.56,0,0,0-.34.12.66.66,0,0,0-.23.3Z"/><path class="cls-4" d="M14.67,28.14a.3.3,0,0,1-.25-.11.32.32,0,0,1,0-.27h.16q0,.25.17.25a.25.25,0,0,0,.28-.22.16.16,0,0,0-.05-.17l-.08,0-.1,0-.1,0-.08-.06a.24.24,0,0,1,0-.22.41.41,0,0,1,.15-.25.42.42,0,0,1,.27-.1.26.26,0,0,1,.22.1.27.27,0,0,1,0,.24h-.16q0-.19-.14-.19a.21.21,0,0,0-.23.18.13.13,0,0,0,.06.15l.08,0h0l0,0,.09,0,.08.07a.29.29,0,0,1,0,.25A.43.43,0,0,1,14.67,28.14Z"/><path class="cls-4" d="M15.89,28.11l.35-1.67h.91l0,.15h-.74l-.13.6H17l0,.15h-.72l-.13.61h.74l0,.15Z"/><path class="cls-4" d="M17.65,28.11h-.17l-.26-1.23h.17l.21,1,.66-1h.17Z"/><path class="cls-4" d="M19.68,27.55H18.56a.37.37,0,0,0,.09.31.37.37,0,0,0,.3.13.6.6,0,0,0,.5-.29h.17a.87.87,0,0,1-.3.31.74.74,0,0,1-.4.12.5.5,0,0,1-.41-.19.53.53,0,0,1-.09-.45.81.81,0,0,1,.28-.46.76.76,0,0,1,.49-.19.49.49,0,0,1,.42.2.55.55,0,0,1,.09.46Zm-.13-.14a.4.4,0,0,0-.1-.3.38.38,0,0,0-.29-.12.56.56,0,0,0-.34.12.66.66,0,0,0-.23.3Z"/><path class="cls-4" d="M20.54,27a.44.44,0,0,0-.43.38l-.15.72H19.8l.26-1.23h.16l0,.18h0a.43.43,0,0,1,.17-.16.61.61,0,0,1,.22,0Z"/><path class="cls-4" d="M20.79,28.54h-.16l.31-.47-.23-1.19h.17l.18,1,.63-1h.17Z"/><path class="cls-4" d="M23.47,28a1.08,1.08,0,0,1-.28.11,1.34,1.34,0,0,1-.29,0h-.49l.35-1.67h.49a1.13,1.13,0,0,1,.28,0,.68.68,0,0,1,.24.1.63.63,0,0,1,.23.7A1,1,0,0,1,23.47,28Zm.19-1.25a.53.53,0,0,0-.24-.11l-.14,0H22.9L22.61,28H23l.14,0a.84.84,0,0,0,.28-.11.81.81,0,0,0,.25-.24.86.86,0,0,0,.13-.31A.52.52,0,0,0,23.66,26.72Z"/><path class="cls-4" d="M25.16,28.11l0-.22h0a.68.68,0,0,1-.53.25.51.51,0,0,1-.52-.65.78.78,0,0,1,.29-.46.8.8,0,0,1,.51-.18.42.42,0,0,1,.43.25h0l0-.22h.16l-.26,1.23Zm.07-1a.38.38,0,0,0-.32-.15.6.6,0,0,0-.39.15.64.64,0,0,0-.22.36.41.41,0,0,0,.07.36.4.4,0,0,0,.33.14.58.58,0,0,0,.38-.15.62.62,0,0,0,.22-.35A.42.42,0,0,0,25.24,27.14Z"/><path class="cls-4" d="M25.83,28.54h-.16l.31-.47-.23-1.19h.17l.18,1,.63-1h.17Z"/><path class="cls-4" d="M31.18,21.42H31a1,1,0,0,0-.4-.76,1.68,1.68,0,0,0-.85-.16,1.58,1.58,0,0,0-.82.24.79.79,0,0,0-.43.68q0,.55.76.76l1.4.34a1.05,1.05,0,0,1,.76,1,1.29,1.29,0,0,1-.61,1.13,2.23,2.23,0,0,1-1.28.36,3.21,3.21,0,0,1-.68-.07,3.3,3.3,0,0,1-.69-.24v-.2q0-.37,0-.52t0-.46h.14q.16,1.24,1.28,1.24a1.69,1.69,0,0,0,1-.27A1,1,0,0,0,31,23.7a.76.76,0,0,0-.26-.61,1.45,1.45,0,0,0-.6-.26l-.68-.13q-1.33-.28-1.33-1.15a1.14,1.14,0,0,1,.61-1A2.52,2.52,0,0,1,30,20.23a5.5,5.5,0,0,1,1.15.16v.09c0,.11,0,.22,0,.34S31.16,21.14,31.18,21.42Z"/><path class="cls-4" d="M.55,20.23H1.78L3.09,24l1.08-3.14v-.09q0-.27-.37-.52H4.9l1.32,3.84,1.12-3.23,0-.16a.68.68,0,0,0-.28-.45h1.2l-1.83,5-.09,0L6,25.07a1,1,0,0,1-.51-.55l-.11-.33-.87-2.33-1.2,3.36A2.17,2.17,0,0,1,2.8,25a1,1,0,0,1-.39-.43l-.09-.23L1,20.84a.92.92,0,0,0-.16-.3A3.09,3.09,0,0,0,.55,20.23Z"/><path class="cls-4" d="M8.32,25.05a1,1,0,0,0,.27-.29.82.82,0,0,0,.06-.3V20.84a.7.7,0,0,0-.07-.33,1.08,1.08,0,0,0-.21-.28h2.81v1a.69.69,0,0,0-.55-.37H9.54v1.3h1.22V23a.7.7,0,0,0-.29-.22,1.22,1.22,0,0,0-.4-.05H9.54V24.4a6.57,6.57,0,0,0,.78.07h.36a1.43,1.43,0,0,0,.3,0l.27-.08a3,3,0,0,0,.53-.3l-.35,1Z"/><path class="cls-4" d="M12.1,25.05a1.08,1.08,0,0,0,.26-.29.64.64,0,0,0,.06-.3V20.84a.67.67,0,0,0-.05-.29,1,1,0,0,0-.23-.31h1l2.7,3.42V20.84a.67.67,0,0,0-.05-.29,1.07,1.07,0,0,0-.23-.31h1.22a2.2,2.2,0,0,0-.21.28.78.78,0,0,0-.07.33v4.43a1.53,1.53,0,0,1-.51-.22,2,2,0,0,1-.38-.3l-.28-.33-.18-.22L13.1,21.54v2.93a.79.79,0,0,0,0,.12.67.67,0,0,0,.07.18.9.9,0,0,0,.28.27Z"/><path class="cls-4" d="M17.07,20.31h3.32v.19a8.49,8.49,0,0,0,.06,1.08h-.16a2.74,2.74,0,0,0-.18-.69.49.49,0,0,0-.23-.2,1,1,0,0,0-.39-.07H19v3.72q0,.09,0,.21a.44.44,0,0,0,.05.2.41.41,0,0,0,.34.19V25l-.65,0-.6,0v-.11h0a.3.3,0,0,0,.3-.22,1.36,1.36,0,0,0,0-.41V20.61h-.59a.61.61,0,0,0-.57.3,2.3,2.3,0,0,0-.17.66H17A11.62,11.62,0,0,0,17.07,20.31Z"/><path class="cls-4" d="M20.54,24.93a.47.47,0,0,0,.31-.08.41.41,0,0,0,.09-.31V20.82a.4.4,0,0,0-.07-.29.67.67,0,0,0-.31-.1v-.12H23.9v.12a5.44,5.44,0,0,0,.09.94l-.14-.09a.87.87,0,0,0-.26-.52,1,1,0,0,0-.59-.14H21.41v1.8h1.1a.54.54,0,0,0,.35-.1.39.39,0,0,0,.09-.14A.62.62,0,0,0,23,22h.13l0,.62c0,.1,0,.2,0,.32s0,.24,0,.36L23,23.19a.41.41,0,0,0-.13-.34.65.65,0,0,0-.4-.1h-1v2h1.83a.69.69,0,0,0,.57-.21,1.6,1.6,0,0,0,.21-.59h.17a4.79,4.79,0,0,0-.12,1.12H20.54Z"/><path class="cls-4" d="M24.32,24.93a.47.47,0,0,0,.31-.08.41.41,0,0,0,.09-.31V20.82a.4.4,0,0,0-.07-.29.67.67,0,0,0-.31-.1v-.12h3.34v.12a5.44,5.44,0,0,0,.09.94l-.14-.09a.87.87,0,0,0-.26-.52,1,1,0,0,0-.59-.14H25.19v1.8h1.1a.54.54,0,0,0,.35-.1.39.39,0,0,0,.09-.14.62.62,0,0,0,0-.21h.13l0,.62c0,.1,0,.2,0,.32s0,.24,0,.36l-.15-.08a.41.41,0,0,0-.13-.34.65.65,0,0,0-.4-.1h-1v2H27a.69.69,0,0,0,.57-.21,1.6,1.6,0,0,0,.21-.59H28a4.79,4.79,0,0,0-.12,1.12H24.32Z"/></svg>